<mxfile host="app.diagrams.net" modified="2023-06-05T16:09:22.567Z" agent="Mozilla/5.0 (Windows NT 10.0; Win64; x64) AppleWebKit/537.36 (KHTML, like Gecko) Chrome/113.0.0.0 Safari/537.36" version="21.3.7" etag="uet1pRFHTBgqxUZn8CbN" type="github">
  <diagram name="第 1 页" id="CPEZaavhhqaiYh_-c7cp">
    <mxGraphModel>
      <root>
        <mxCell id="0" />
        <mxCell id="1" parent="0" />
      </root>
    </mxGraphModel>
  </diagram>
</mxfile>
